<?xml version="1.0" standalone="no"?>
<!DOCTYPE svg PUBLIC "-//W3C//DTD SVG 20010904//EN"
 "http://www.w3.org/TR/2001/REC-SVG-20010904/DTD/svg10.dtd">
<svg version="1.0" xmlns="http://www.w3.org/2000/svg"
 width="512.000000pt" height="512.000000pt" viewBox="0 0 512.000000 512.000000"
 preserveAspectRatio="xMidYMid meet">
<metadata>
Created by potrace 1.14, written by Peter Selinger 2001-2017
</metadata>
<g transform="translate(0.000000,512.000000) scale(0.100000,-0.100000)"
fill="#000000" stroke="none">
<path d="M1145 3513 c-11 -2 -56 -13 -99 -24 -339 -85 -598 -342 -693 -686
-24 -87 -27 -115 -27 -248 1 -119 5 -166 22 -227 48 -179 130 -320 261 -448
137 -136 291 -219 479 -259 96 -21 323 -22 417 -3 228 47 402 123 567 247 40
30 166 148 280 262 l208 208 213 -211 c191 -190 305 -294 320 -294 4 0 23 -12
44 -26 116 -80 332 -161 498 -188 131 -21 338 -14 440 14 451 123 750 530 721
980 -28 445 -328 795 -764 890 -64 14 -114 17 -225 15 -159 -4 -174 -6 -288
-35 -151 -39 -275 -93 -404 -178 -98 -64 -115 -79 -348 -310 l-207 -206 -208
208 c-230 229 -317 299 -461 374 -200 104 -354 143 -576 146 -82 2 -159 1
-170 -1z m301 -326 c5 -3 25 -8 44 -11 114 -18 278 -93 390 -178 41 -31 160
-142 265 -247 l190 -191 -210 -208 c-191 -189 -278 -263 -373 -315 -56 -30
-177 -75 -249 -93 -91 -21 -280 -26 -362 -8 -177 38 -352 175 -431 337 -53
110 -69 187 -65 312 5 171 62 301 185 425 86 87 167 134 285 166 67 19 100 22
201 20 67 -2 126 -6 130 -9z m2537 -3 c234 -55 423 -246 484 -489 13 -53 11
-214 -3 -275 -54 -235 -254 -435 -486 -485 -73 -15 -255 -13 -338 5 -30 6 -82
21 -115 32 -189 65 -276 128 -530 379 l-210 209 180 180 c99 100 215 209 257
243 110 90 278 170 405 193 15 3 46 9 68 13 66 13 222 10 288 -5z"/>
</g>
</svg>
